Coordinates
version=1
nRows=21
nColumns=22
inDegrees=yes

Units are S.I. units (second, meters, Newtons, ...)
If the header above contains a line with 'inDegrees', this indicates whether rotational values are in degrees (yes) or radians (no).

endheader
time	pelvis_tilt	pelvis_list	pelvis_rotation	pelvis_tx	pelvis_ty	pelvis_tz	hip_flexion_r	hip_adduction_r	hip_rotation_r	knee_angle_r	ankle_angle_r	subtalar_angle_r	hip_flexion_l	hip_adduction_l	hip_rotation_l	knee_angle_l	ankle_angle_l	subtalar_angle_l	lumbar_extension	lumbar_bending	lumbar_rotation
      4.22000000	      4.21507871	     -4.17034776	      6.95182285	      0.25753499	      1.06654465	     -0.34477459	     13.96561409	      4.58384504	     -7.78647410	    -15.22618043	      1.69657734	     -0.75396814	     -4.26089778	     -5.55028168	      4.12509523	    -37.72207086	      9.28584951	      9.74159340	     -5.77878302	      3.57204398	    -10.40025473
      4.23000000	      4.38494415	     -4.28252598	      7.10100403	      0.26528662	      1.06759007	     -0.34322667	     13.34715852	      4.84885475	     -7.96101241	    -15.17465962	      1.87415839	     -1.08297506	     -3.59764726	     -5.80276727	      4.34349848	    -39.65772428	      7.63590678	     10.41663101	     -5.83525755	      3.65468583	    -10.42167041
      4.24000000	      4.57083568	     -4.38937071	      7.24554463	      0.27290733	      1.06861512	     -0.34169933	     12.68431311	      5.11446623	     -8.15237700	    -15.06016497	      2.04109539	     -1.41456507	     -2.90260611	     -6.04258809	      4.55722167	    -41.62188413	      5.96676199	     10.91132414	     -5.91150497	      3.72961928	    -10.41230877
      4.25000000	      4.77192880	     -4.49044596	      7.37407272	      0.28037851	      1.06962695	     -0.34018438	     11.99234692	      5.38182566	     -8.32451109	    -14.90604221	      2.17175934	     -1.68689154	     -2.18794038	     -6.26356309	      4.76414056	    -43.59023600	      4.29475179	     11.21472537	     -6.01020880	      3.79454279	    -10.35514923
      4.26000000	      4.97353800	     -4.60631464	      7.49150349	      0.28771062	      1.07056834	     -0.33868167	     11.29671524	      5.67042191	     -8.48951561	    -14.72820102	      2.37372277	     -2.05267722	     -1.43995079	     -6.48996819	      4.96117767	    -45.55059050	      2.70101814	     11.44024034	     -6.10867350	      3.87111331	    -10.26378598
      4.27000000	      5.18354962	     -4.70781531	      7.56577165	      0.29487391	      1.07151113	     -0.33718461	     10.60138464	      5.95159846	     -8.58401417	    -14.55349172	      2.51853500	     -2.29398367	     -0.69775930	     -6.67963478	      5.13342170	    -47.45231252	      1.15782655	     11.57528553	     -6.22614531	      3.92886424	    -10.08457486
      4.28000000	      5.38103941	     -4.83088677	      7.62613728	      0.30188988	      1.07237409	     -0.33570227	      9.93081463	      6.25745601	     -8.65300942	    -14.38035761	      2.72838325	     -2.63075348	      0.07041715	     -6.88068180	      5.28993928	    -49.29456789	     -0.20590605	     11.64981314	     -6.32674549	      4.00612502	     -9.86477690
      4.29000000	      5.58031986	     -4.93344265	      7.64059586	      0.30873327	      1.07324864	     -0.33422093	      9.27264328	      6.54508073	     -8.64875193	    -14.22459594	      2.89257522	     -2.81994600	      0.81876699	     -7.04577975	      5.40357714	    -51.02534329	     -1.39080257	     11.72487475	     -6.43964807	      4.05589140	     -9.55838454
      4.30000000	      5.76489854	     -5.04615066	      7.62928555	      0.31540777	      1.07408056	     -0.33272377	      8.64341213	      6.84450557	     -8.60572405	    -14.07658569	      3.07216437	     -3.00929262	      1.57422990	     -7.21832340	      5.48070523	    -52.64195498	     -2.28627503	     11.75405041	     -6.54081997	      4.10852616	     -9.20421881
      4.31000000	      5.93243018	     -5.15907291	      7.59353580	      0.32193017	      1.07488331	     -0.33122548	      8.03778595	      7.14382919	     -8.52332992	    -13.92681980	      3.25343676	     -3.18644402	      2.32967125	     -7.39353664	      5.51180482	    -54.12196163	     -2.83466794	     11.69655269	     -6.62450969	      4.15586352	     -8.79763761
      4.32000000	      6.07353618	     -5.26681891	      7.53921171	      0.32832701	      1.07565688	     -0.32971600	      7.44980469	      7.43650647	     -8.41375293	    -13.74876254	      3.43845825	     -3.36837250	      3.08634353	     -7.56750987	      5.50450982	    -55.44678382	     -2.99353224	     11.44981943	     -6.67962331	      4.18546429	     -8.34159968
      4.33000000	      6.21871680	     -5.36964035	      7.47163423	      0.33452569	      1.07644402	     -0.32820824	      6.87014609	      7.72298939	     -8.27299123	    -13.58155008	      3.58912588	     -3.48596708	      3.81775464	     -7.74278199	      5.46752372	    -56.61273770	     -2.78454806	     11.04010859	     -6.75347625	      4.20787040	     -7.86928197
      4.34000000	      6.33401500	     -5.44061784	      7.40696605	      0.34063532	      1.07723206	     -0.32674679	      6.28218030	      7.97231050	     -8.12198686	    -13.34071823	      3.75407918	     -3.61935182	      4.54317022	     -7.88468376	      5.40698462	    -57.59577838	     -2.29820432	     10.19328581	     -6.79245156	      4.18922220	     -7.40567369
      4.35000000	      6.45765106	     -5.48800843	      7.34085912	      0.34658092	      1.07805012	     -0.32534182	      5.68634212	      8.19075997	     -7.98132344	    -13.09583396	      3.89848697	     -3.69237894	      5.22235298	     -7.99624593	      5.34154119	    -58.40227364	     -1.46552956	      9.24399800	     -6.85391691	      4.14789946	     -6.94289013
      4.36000000	      6.56932987	     -5.53533322	      7.27469404	      0.35246760	      1.07888141	     -0.32399017	      5.06854197	      8.40741375	     -7.82550354	    -12.78150362	      4.01044743	     -3.73519923	      5.87345321	     -8.11110030	      5.25341440	    -59.02839908	     -0.40622984	      8.22930096	     -6.89417988	      4.10800663	     -6.48891281
      4.37000000	      6.68608730	     -5.52442686	      7.22121033	      0.35819380	      1.07974665	     -0.32277244	      4.44530303	      8.55032452	     -7.69521150	    -12.47101780	      4.12781997	     -3.75722001	      6.47081029	     -8.13495502	      5.19337251	    -59.47236219	      0.80770211	      7.08355464	     -6.95796834	      4.01318340	     -6.07022322
      4.38000000	      6.79317434	     -5.50381668	      7.16835380	      0.36387007	      1.08061422	     -0.32163515	      3.80460233	      8.67766025	     -7.56005374	    -12.10673677	      4.22799018	     -3.74996684	      7.03068465	     -8.14627619	      5.11417786	    -59.73866618	      2.12896191	      6.05767367	     -7.00365229	      3.91452098	     -5.68500023
      4.39000000	      6.89962369	     -5.43892851	      7.12521759	      0.36943985	      1.08148835	     -0.32062231	      3.16349414	      8.74630393	     -7.45250667	    -11.74423729	      4.32558785	     -3.71925609	      7.53820121	     -8.09238151	      5.04071655	    -59.82725404	      3.48770391	      5.09343212	     -7.05645412	      3.77643560	     -5.33738454
      4.40000000	      6.99171239	     -5.36272974	      7.08389642	      0.37491490	      1.08231823	     -0.31970851	      2.53638015	      8.79215871	     -7.35633906	    -11.37322590	      4.41808967	     -3.67311733	      8.01494344	     -8.01839018	      4.95596066	    -59.75334402	      4.84911140	      4.33119604	     -7.09244402	      3.63624650	     -5.02336532
      4.41000000	      7.06235472	     -5.28850598	      7.04883910	      0.38024033	      1.08306465	     -0.31885999	      1.94390448	      8.83104870	     -7.26121908	    -11.00788267	      4.50726894	     -3.62511185	      8.47655390	     -7.93397701	      4.88259738	    -59.52900006	      6.16108948	      3.76370415	     -7.11539125	      3.50062632	     -4.72843463
      4.42000000	      7.10451093	     -5.21763376	      7.02159310	      0.38544803	      1.08370833	     -0.31806739	      1.38897117	      8.86422242	     -7.17495073	    -10.64046884	      4.58828149	     -3.58533170	      8.92831475	     -7.85660355	      4.79208636	    -59.15403284	      7.38144259	      3.34784829	     -7.10737276	      3.37220360	     -4.48071472
